Coordinates
version=1
nRows=35
nColumns=38
inDegrees=no

Units are S.I. units (second, meters, Newtons, ...)
If the header above contains a line with 'inDegrees', this indicates whether rotational values are in degrees (yes) or radians (no).

endheader
time	pelvis_tilt	pelvis_list	pelvis_rotation	pelvis_tx	pelvis_ty	pelvis_tz	hip_flexion_r	hip_adduction_r	hip_rotation_r	knee_angle_r	ankle_angle_r	subtalar_angle_r	mtp_angle_r	hip_flexion_l	hip_adduction_l	hip_rotation_l	knee_angle_l	ankle_angle_l	subtalar_angle_l	mtp_angle_l	lumbar_extension	lumbar_bending	lumbar_rotation	arm_flex_r	arm_add_r	arm_rot_r	elbow_flex_r	pro_sup_r	wrist_flex_r	wrist_dev_r	arm_flex_l	arm_add_l	arm_rot_l	elbow_flex_l	pro_sup_l	wrist_flex_l	wrist_dev_l
20	2.73582	1.34538	-1.25074	0.643005	-0.496374	0.951757	-0.210831	0.0194151	-0.257773	0.0982288	-0.0458807	0	0	-0.312994	-0.0548768	-0.276743	0	-0.0155746	0	0	-0.339319	0.0365263	0.139022	-0.0330826	-0.327213	0.810792	0.443621	0.879639	0	0	-0.0748375	-0.238921	0.29146	0.435212	1.5708	0	0
20.01	2.72413	1.35564	-1.24581	0.643551	-0.497952	0.951236	-0.210084	0.0217727	-0.25621	0.070015	-0.0638978	0	0	-0.299429	-0.0521481	-0.281563	0	-0.0154832	0	0	-0.333359	0.0370539	0.145525	-0.0289252	-0.331869	0.814012	0.444744	0.881837	0	0	-0.0616441	-0.233427	0.294737	0.432783	1.5708	0	0
20.02	2.73705	1.34802	-1.2517	0.644762	-0.495173	0.951707	-0.218157	0.0223265	-0.248935	0.0825024	-0.0535064	0	0	-0.311254	-0.0559489	-0.276825	0	-0.0160129	0	0	-0.335466	0.039225	0.137955	-0.0313783	-0.329554	0.821092	0.442913	0.884873	0	0	-0.0623126	-0.236972	0.298719	0.439751	1.5708	0	0
20.03	2.74011	1.34883	-1.25452	0.645663	-0.494749	0.951748	-0.21995	0.0227582	-0.248135	0.0794775	-0.0544226	0	0	-0.310884	-0.0561468	-0.275398	0	-0.0170456	0	0	-0.334712	0.0401036	0.13695	-0.028916	-0.331121	0.830121	0.442554	0.887704	0	0	-0.0564207	-0.236977	0.304903	0.444795	1.5708	0	0
20.04	2.74064	1.35079	-1.25441	0.646548	-0.494196	0.951658	-0.22124	0.0237358	-0.24611	0.0749213	-0.0564375	0	0	-0.309027	-0.0565227	-0.274688	0	-0.01741	0	0	-0.332022	0.0412068	0.135284	-0.026278	-0.332523	0.839918	0.441607	0.890073	0	0	-0.050962	-0.23677	0.309024	0.449588	1.5708	0	0
20.05	2.7384	1.353	-1.25119	0.647654	-0.494262	0.951695	-0.222539	0.0254518	-0.242725	0.0698927	-0.0590901	0	0	-0.306671	-0.0574533	-0.274866	0	-0.0169778	0	0	-0.329323	0.0425256	0.133703	-0.0234069	-0.333556	0.850219	0.440577	0.891987	0	0	-0.0450415	-0.2366	0.31214	0.454477	1.5708	0	0
20.06	2.71083	1.3589	-1.22141	0.648071	-0.492961	0.950557	-0.217688	0.03162	-0.240536	0.0650057	-0.061148	0	0	-0.295844	-0.0617612	-0.273309	0	-0.0145247	0	0	-0.319795	0.0490919	0.131531	-0.0215121	-0.336061	0.861084	0.440578	0.893564	0	0	-0.0403379	-0.235309	0.314939	0.459012	1.5708	0	0
20.07	2.80101	1.35786	-1.30539	0.64798	-0.489707	0.950645	-0.241604	0.0163436	-0.195566	0.0460279	-0.0591069	0	0	-0.308687	-0.0445898	-0.26526	0	-0.0172425	0	0	-0.318814	0.0337807	0.120523	-0.0241816	-0.334969	0.871313	0.439899	0.894281	0	0	-0.0427431	-0.238916	0.317671	0.468245	1.5708	0	0
20.08	2.80259	1.35784	-1.30665	0.648844	-0.489126	0.950726	-0.248438	0.0182353	-0.188324	0.0349855	-0.0646184	0	0	-0.309309	-0.0453941	-0.264581	0	-0.0181069	0	0	-0.318006	0.0348486	0.119811	-0.021159	-0.336655	0.881969	0.43989	0.895192	0	0	-0.0375311	-0.239293	0.322251	0.475255	1.5708	0	0
20.09	2.80362	1.35927	-1.30692	0.649625	-0.488628	0.950721	-0.251551	0.0194573	-0.185277	0.027974	-0.0676893	0	0	-0.307988	-0.0459396	-0.263958	0	-0.0186557	0	0	-0.315727	0.0357335	0.118706	-0.0181275	-0.338159	0.892142	0.439725	0.896464	0	0	-0.0323845	-0.239493	0.326741	0.481976	1.5708	0	0
20.1	2.80331	1.3613	-1.30544	0.650431	-0.488157	0.950665	-0.25305	0.0208149	-0.183917	0.0226779	-0.0697518	0	0	-0.305763	-0.0467566	-0.263417	0	-0.0187157	0	0	-0.312817	0.0366761	0.117233	-0.015143	-0.339253	0.900583	0.439582	0.897105	0	0	-0.0272974	-0.2399	0.331903	0.488508	1.5708	0	0
20.11	2.80504	1.3625	-1.30565	0.651224	-0.487588	0.950672	-0.255643	0.02201	-0.183215	0.0176891	-0.07121	0	0	-0.304778	-0.0475112	-0.262269	0	-0.0185987	0	0	-0.310743	0.0372923	0.115588	-0.0126412	-0.340048	0.907496	0.43979	0.897846	0	0	-0.0217408	-0.239973	0.334969	0.494035	1.5708	0	0
20.12	2.81419	1.36959	-1.32001	0.651032	-0.488453	0.950375	-0.256142	0.0186248	-0.185574	1.18517e-05	-0.0841242	0	0	-0.297265	-0.0409625	-0.261872	0	-0.020577	0	0	-0.305418	0.0359293	0.11977	-0.00840042	-0.345642	0.912887	0.441726	0.898858	0	0	-0.0126308	-0.233441	0.333272	0.494066	1.5708	0	0
20.13	2.73648	1.37129	-1.25414	0.653531	-0.490608	0.950869	-0.243443	0.034558	-0.222991	5.40872e-07	-0.0962544	0	0	-0.289478	-0.0565022	-0.272092	0	-0.0201957	0	0	-0.305228	0.0487478	0.134014	0.0023582	-0.348215	0.921356	0.43963	0.896589	0	0	0.00270272	-0.225105	0.320518	0.48824	1.5708	0	0
20.14	2.73612	1.37365	-1.25145	0.654164	-0.491125	0.950792	-0.241471	0.0352604	-0.218991	0	-0.0982577	0	0	-0.28483	-0.0574828	-0.273934	0	-0.0181838	0	0	-0.305665	0.0483667	0.132533	0.00594688	-0.348028	0.925222	0.439515	0.896232	0	0	0.0115539	-0.22428	0.318809	0.492478	1.5708	0	0
20.15	2.74844	1.36729	-1.25464	0.655455	-0.489008	0.951251	-0.253543	0.0376112	-0.209827	0.00151576	-0.0872693	0	0	-0.294377	-0.0616585	-0.270368	0	-0.0170784	0	0	-0.306705	0.0489575	0.123645	0.00447421	-0.344218	0.92881	0.438798	0.895237	0	0	0.0114675	-0.228603	0.317914	0.501354	1.5708	0	0
20.16	2.70106	1.32889	-1.21831	0.657839	-0.490931	0.955355	-0.286089	0.0629869	-0.199626	0.000437877	-0.10381	0	0	-0.330855	-0.0860001	-0.29096	0	-0.0191182	0	0	-0.350207	0.0686768	0.140827	0.0179507	-0.350936	0.93535	0.445255	0.8928	0	0	0.0273675	-0.226038	0.320779	0.508249	1.5708	0	0
20.17	2.68429	1.33292	-1.21327	0.658313	-0.493249	0.955387	-0.276588	0.0632959	-0.20552	0	-0.118373	0	0	-0.323353	-0.0848274	-0.298677	0	-0.0197284	0	0	-0.351831	0.0704196	0.152435	0.0276392	-0.35792	0.944811	0.448862	0.88359	0	0	0.0407049	-0.217968	0.316885	0.505813	1.5708	0	0
20.18	2.70454	1.32868	-1.22035	0.659142	-0.490468	0.955471	-0.288668	0.0640689	-0.198757	0	-0.105618	0	0	-0.330969	-0.0873178	-0.290384	0	-0.0181086	0	0	-0.349404	0.0694121	0.139639	0.0244815	-0.352345	0.947414	0.446702	0.880566	0	0	0.0391552	-0.223633	0.317458	0.514612	1.5708	0	0
20.19	2.70812	1.32839	-1.22268	0.659724	-0.490237	0.95553	-0.290199	0.0643177	-0.199686	0	-0.105918	0	0	-0.331379	-0.0878169	-0.289085	0	-0.0183226	0	0	-0.349098	0.0693167	0.138998	0.0267955	-0.352371	0.949501	0.446974	0.877394	0	0	0.044409	-0.223511	0.31833	0.519357	1.57053	0	0
20.2	2.69058	1.33425	-1.21647	0.6601	-0.492613	0.955377	-0.278303	0.0640593	-0.207054	0	-0.119184	0	0	-0.321746	-0.0862002	-0.296912	0	-0.0187843	0	0	-0.348748	0.0706314	0.150465	0.0351568	-0.358277	0.951874	0.449914	0.868584	0	0	0.0571901	-0.215018	0.312816	0.515361	1.56765	0	0
20.21	2.71329	1.32955	-1.22614	0.660904	-0.489877	0.955438	-0.290963	0.064446	-0.20067	0	-0.105431	0	0	-0.330191	-0.0882873	-0.289341	0	-0.0167877	0	0	-0.346972	0.068817	0.13803	0.0310544	-0.352612	0.950556	0.44921	0.866181	0	0	0.0553117	-0.220828	0.312843	0.52362	1.56602	0	0
20.22	2.69683	1.33355	-1.22113	0.661356	-0.492173	0.955375	-0.281313	0.0647188	-0.207761	0	-0.118368	0	0	-0.323037	-0.087205	-0.296231	0	-0.0172614	0	0	-0.348356	0.0702306	0.149406	0.0389112	-0.358214	0.950416	0.452681	0.864174	0	0	0.0669788	-0.213646	0.310179	0.52095	1.56203	0	0
20.23	2.69225	1.37846	-1.20211	0.663147	-0.489358	0.950254	-0.240249	0.0554503	-0.223021	0	-0.103514	0	0	-0.275052	-0.0787385	-0.282051	0.000361679	-0.00849947	0	0	-0.291821	0.0545102	0.130073	0.0292112	-0.339928	0.941554	0.438757	0.864458	0	0	0.0595007	-0.222633	0.304559	0.523034	1.56046	0	0
20.24	2.75992	1.37847	-1.26648	0.660535	-0.4879	0.95043	-0.249035	0.0383273	-0.224087	0	-0.0997836	0	0	-0.282006	-0.0619342	-0.269335	0	-0.0134104	0	0	-0.289552	0.0478833	0.126477	0.025403	-0.347726	0.938459	0.445257	0.865375	0	0	0.0608418	-0.214468	0.301514	0.52031	1.56021	0	0
20.25	2.69604	1.37428	-1.22109	0.661279	-0.489901	0.951039	-0.24429	0.0476285	-0.202855	0	-0.105251	0	0	-0.283014	-0.0708273	-0.286601	0	-0.0131057	0	0	-0.296224	0.0609442	0.147641	0.0322104	-0.358604	0.937487	0.452708	0.86532	0	0	0.0717075	-0.202562	0.295896	0.513712	1.56064	0	0
20.26	2.76491	1.3771	-1.27018	0.661629	-0.487236	0.950473	-0.252017	0.0393804	-0.222451	0	-0.0992091	0	0	-0.283851	-0.0633102	-0.268208	0	-0.0124337	0	0	-0.290223	0.0476296	0.126193	0.0280431	-0.3476	0.935613	0.448829	0.863015	0	0	0.0698489	-0.211728	0.295369	0.518819	1.5637	0	0
20.27	2.76549	1.37687	-1.26962	0.662304	-0.487631	0.950542	-0.252712	0.0402361	-0.223399	0	-0.0980426	0	0	-0.284051	-0.0643187	-0.266514	0	-0.012005	0	0	-0.290848	0.047648	0.125392	0.0300383	-0.346872	0.934394	0.449302	0.860676	0	0	0.0734135	-0.212105	0.296342	0.520529	1.5652	0	0
20.28	2.7663	1.37648	-1.2701	0.662785	-0.487109	0.950472	-0.253489	0.0409931	-0.223164	0	-0.0976677	0	0	-0.284457	-0.0651942	-0.266853	0	-0.0115686	0	0	-0.290608	0.0475888	0.125638	0.0313202	-0.346453	0.932445	0.450303	0.858438	0	0	0.076575	-0.212162	0.29665	0.521203	1.5662	0	0
20.29	2.76681	1.37653	-1.27087	0.663319	-0.486934	0.950449	-0.253342	0.0414643	-0.222519	0	-0.0971088	0	0	-0.284488	-0.0657646	-0.267295	0	-0.0113766	0	0	-0.290703	0.0474133	0.126371	0.032989	-0.346429	0.930284	0.451758	0.856019	0	0	0.0795515	-0.212306	0.296969	0.521991	1.56714	0	0
20.3	2.76766	1.37655	-1.27131	0.663908	-0.486981	0.950415	-0.253676	0.0419659	-0.222714	0	-0.0968838	0	0	-0.284896	-0.0663647	-0.267131	0	-0.0114096	0	0	-0.28991	0.0471766	0.126614	0.0339209	-0.346215	0.927462	0.45344	0.85384	0	0	0.0817389	-0.212586	0.297411	0.522386	1.56868	0	0
20.31	2.76687	1.3764	-1.27016	0.664434	-0.486694	0.950402	-0.254215	0.0428743	-0.222812	0	-0.0962053	0	0	-0.285485	-0.067359	-0.266637	2.79377e-07	-0.0115638	0	0	-0.288799	0.0473635	0.126871	0.0343678	-0.345998	0.924459	0.45531	0.852593	0	0	0.0832299	-0.212923	0.297568	0.522453	1.5708	0	0
20.32	2.76422	1.37648	-1.26715	0.665003	-0.48655	0.950345	-0.254462	0.0441092	-0.223042	0	-0.0956109	0	0	-0.285679	-0.0685222	-0.266566	0	-0.0112788	0	0	-0.287282	0.0478077	0.126916	0.0347095	-0.345766	0.921543	0.457343	0.852549	0	0	0.0839207	-0.213556	0.297595	0.522762	1.5708	0	0
20.33	2.76383	1.37645	-1.26624	0.665508	-0.486396	0.950327	-0.25445	0.0449826	-0.223232	0	-0.0950594	0	0	-0.285845	-0.0693221	-0.266449	0	-0.0107508	0	0	-0.286811	0.0477741	0.126446	0.0355934	-0.345355	0.918888	0.459377	0.853174	0	0	0.0842944	-0.214819	0.298102	0.524236	1.5708	0	0
20.34	2.7655	1.37583	-1.26684	0.665899	-0.4861	0.950361	-0.255263	0.0457213	-0.224115	0	-0.0946673	0	0	-0.286697	-0.0700581	-0.265624	0	-0.0108563	0	0	-0.286765	0.047614	0.125775	0.0363343	-0.344896	0.915577	0.461636	0.853921	0	0	0.0841898	-0.216361	0.298873	0.526734	1.5708	0	0
